<mxfile host="app.diagrams.net" agent="Mozilla/5.0 (Windows NT 10.0; Win64; x64) AppleWebKit/537.36 (KHTML, like Gecko) Chrome/132.0.0.0 YaBrowser/25.2.0.0 Safari/537.36" version="26.2.12">
  <diagram name="Страница — 1" id="ysiQBloccP-6B-CUkCuF">
    <mxGraphModel dx="1339" dy="1008" grid="0" gridSize="10" guides="1" tooltips="1" connect="1" arrows="1" fold="1" page="0" pageScale="1" pageWidth="827" pageHeight="1169" math="0" shadow="0">
      <root>
        <mxCell id="0" />
        <mxCell id="1" parent="0" />
        <mxCell id="Mk1Z0D-mKazQVYPmV3hy-1" value="" style="rounded=0;whiteSpace=wrap;html=1;" parent="1" vertex="1">
          <mxGeometry x="59" y="-224" width="751" height="453" as="geometry" />
        </mxCell>
        <mxCell id="37V98sv0wtt9kqBkIG4--5" style="edgeStyle=none;curved=1;rounded=0;orthogonalLoop=1;jettySize=auto;html=1;entryX=0;entryY=0.5;entryDx=0;entryDy=0;fontSize=12;startSize=8;endSize=8;exitX=1;exitY=0.3333333333333333;exitDx=0;exitDy=0;exitPerimeter=0;endArrow=none;startFill=0;" edge="1" parent="1" source="Mk1Z0D-mKazQVYPmV3hy-2" target="Mk1Z0D-mKazQVYPmV3hy-7">
          <mxGeometry relative="1" as="geometry" />
        </mxCell>
        <mxCell id="37V98sv0wtt9kqBkIG4--6" style="edgeStyle=none;curved=1;rounded=0;orthogonalLoop=1;jettySize=auto;html=1;exitX=1;exitY=1;exitDx=0;exitDy=0;exitPerimeter=0;fontSize=12;startSize=8;endSize=8;endArrow=none;startFill=0;" edge="1" parent="1" source="Mk1Z0D-mKazQVYPmV3hy-2" target="Mk1Z0D-mKazQVYPmV3hy-9">
          <mxGeometry relative="1" as="geometry">
            <mxPoint x="35.45452880859375" y="74.36361694335938" as="targetPoint" />
            <Array as="points">
              <mxPoint x="116" y="117" />
            </Array>
          </mxGeometry>
        </mxCell>
        <mxCell id="37V98sv0wtt9kqBkIG4--7" style="edgeStyle=none;curved=1;rounded=0;orthogonalLoop=1;jettySize=auto;html=1;exitX=0;exitY=1;exitDx=0;exitDy=0;exitPerimeter=0;fontSize=12;startSize=8;endSize=8;endArrow=none;startFill=0;" edge="1" parent="1" source="Mk1Z0D-mKazQVYPmV3hy-2" target="Mk1Z0D-mKazQVYPmV3hy-6">
          <mxGeometry relative="1" as="geometry" />
        </mxCell>
        <mxCell id="Mk1Z0D-mKazQVYPmV3hy-2" value="Пользователь" style="shape=umlActor;verticalLabelPosition=bottom;verticalAlign=top;html=1;" parent="1" vertex="1">
          <mxGeometry x="-30" y="-65" width="30" height="60" as="geometry" />
        </mxCell>
        <mxCell id="Mk1Z0D-mKazQVYPmV3hy-4" value="&lt;b&gt;&lt;font style=&quot;font-size: 15px;&quot;&gt;Система решения задачи методом северо-западного угла/мин эл-в&lt;/font&gt;&lt;/b&gt;" style="text;html=1;align=center;verticalAlign=middle;whiteSpace=wrap;rounded=0;" parent="1" vertex="1">
          <mxGeometry x="282" y="-224" width="502" height="30" as="geometry" />
        </mxCell>
        <mxCell id="Mk1Z0D-mKazQVYPmV3hy-5" value="Ввод матрицы стоимостей" style="ellipse;whiteSpace=wrap;html=1;" parent="1" vertex="1">
          <mxGeometry x="406" y="-66" width="120" height="80" as="geometry" />
        </mxCell>
        <mxCell id="Mk1Z0D-mKazQVYPmV3hy-6" value="Просмотр результатов" style="ellipse;whiteSpace=wrap;html=1;" parent="1" vertex="1">
          <mxGeometry x="91" y="131" width="120" height="80" as="geometry" />
        </mxCell>
        <mxCell id="Mk1Z0D-mKazQVYPmV3hy-7" value="Нажатие на кнопку &quot;рассчитать&quot;" style="ellipse;whiteSpace=wrap;html=1;" parent="1" vertex="1">
          <mxGeometry x="105" y="4" width="120" height="80" as="geometry" />
        </mxCell>
        <mxCell id="Mk1Z0D-mKazQVYPmV3hy-8" value="Ввод кол-ва магазинов" style="ellipse;whiteSpace=wrap;html=1;" parent="1" vertex="1">
          <mxGeometry x="536" y="-174" width="120" height="80" as="geometry" />
        </mxCell>
        <mxCell id="Mk1Z0D-mKazQVYPmV3hy-9" value="Нажатие на кнопку &quot;очистить матрицу стоимостей&quot;" style="ellipse;whiteSpace=wrap;html=1;" parent="1" vertex="1">
          <mxGeometry x="268" y="67" width="120" height="80" as="geometry" />
        </mxCell>
        <mxCell id="Mk1Z0D-mKazQVYPmV3hy-10" value="Ввод количества поставщиков" style="ellipse;whiteSpace=wrap;html=1;" parent="1" vertex="1">
          <mxGeometry x="291" y="-167" width="120" height="80" as="geometry" />
        </mxCell>
        <mxCell id="37V98sv0wtt9kqBkIG4--4" style="edgeStyle=none;curved=1;rounded=0;orthogonalLoop=1;jettySize=auto;html=1;exitX=1;exitY=0.5;exitDx=0;exitDy=0;fontSize=12;startSize=8;endSize=8;dashed=1;" edge="1" parent="1" source="Mk1Z0D-mKazQVYPmV3hy-11" target="Mk1Z0D-mKazQVYPmV3hy-8">
          <mxGeometry relative="1" as="geometry" />
        </mxCell>
        <mxCell id="37V98sv0wtt9kqBkIG4--12" style="edgeStyle=none;curved=1;rounded=0;orthogonalLoop=1;jettySize=auto;html=1;exitX=1;exitY=1;exitDx=0;exitDy=0;fontSize=12;startSize=8;endSize=8;dashed=1;" edge="1" parent="1" source="Mk1Z0D-mKazQVYPmV3hy-11" target="Mk1Z0D-mKazQVYPmV3hy-5">
          <mxGeometry relative="1" as="geometry" />
        </mxCell>
        <mxCell id="Mk1Z0D-mKazQVYPmV3hy-11" value="Ввод данных" style="ellipse;whiteSpace=wrap;html=1;" parent="1" vertex="1">
          <mxGeometry x="85" y="-81" width="120" height="80" as="geometry" />
        </mxCell>
        <mxCell id="Mk1Z0D-mKazQVYPmV3hy-14" style="edgeStyle=none;curved=1;rounded=0;orthogonalLoop=1;jettySize=auto;html=1;entryX=0;entryY=0.5;entryDx=0;entryDy=0;fontSize=12;strokeColor=default;endArrow=none;startFill=0;exitX=0.75;exitY=0.1;exitDx=0;exitDy=0;exitPerimeter=0;" parent="1" source="Mk1Z0D-mKazQVYPmV3hy-2" target="Mk1Z0D-mKazQVYPmV3hy-11" edge="1">
          <mxGeometry relative="1" as="geometry" />
        </mxCell>
        <mxCell id="37V98sv0wtt9kqBkIG4--2" style="edgeStyle=none;curved=1;rounded=0;orthogonalLoop=1;jettySize=auto;html=1;exitX=1;exitY=0;exitDx=0;exitDy=0;entryX=0.064;entryY=0.672;entryDx=0;entryDy=0;entryPerimeter=0;fontSize=12;startSize=8;endSize=8;dashed=1;" edge="1" parent="1" source="Mk1Z0D-mKazQVYPmV3hy-11" target="Mk1Z0D-mKazQVYPmV3hy-10">
          <mxGeometry relative="1" as="geometry" />
        </mxCell>
        <mxCell id="37V98sv0wtt9kqBkIG4--10" value="Include" style="text;html=1;align=center;verticalAlign=middle;whiteSpace=wrap;rounded=0;rotation=-20;" vertex="1" parent="1">
          <mxGeometry x="208" y="-117" width="60" height="30" as="geometry" />
        </mxCell>
        <mxCell id="37V98sv0wtt9kqBkIG4--11" value="Include" style="text;html=1;align=center;verticalAlign=middle;whiteSpace=wrap;rounded=0;rotation=-20;" vertex="1" parent="1">
          <mxGeometry x="426" y="-128" width="60" height="30" as="geometry" />
        </mxCell>
        <mxCell id="37V98sv0wtt9kqBkIG4--13" value="Include" style="text;html=1;align=center;verticalAlign=middle;whiteSpace=wrap;rounded=0;rotation=0;" vertex="1" parent="1">
          <mxGeometry x="282" y="-46" width="60" height="30" as="geometry" />
        </mxCell>
      </root>
    </mxGraphModel>
  </diagram>
</mxfile>
